HIERARCHY
ROOT Hips
{
	OFFSET 0.00000 0.00000 0.00000
	CHANNELS 6 Xposition Yposition Zposition Zrotation Yrotation Xrotation 
	JOINT LHipJoint
	{
		OFFSET 0 0 0
		CHANNELS 3 Zrotation Yrotation Xrotation
		JOINT LeftHip
		{
			OFFSET 1.48416 -1.82041 0.59464
			CHANNELS 3 Zrotation Yrotation Xrotation
			JOINT LeftKnee
			{
				OFFSET 2.43280 -6.68407 0.00000
				CHANNELS 3 Zrotation Yrotation Xrotation
				JOINT LeftAnkle
				{
					OFFSET 2.68325 -7.37216 0.00000
					CHANNELS 3 Zrotation Yrotation Xrotation
					JOINT LeftToe
					{
						OFFSET 0.15365 -0.42214 1.91990
						CHANNELS 3 Zrotation Yrotation Xrotation
						End Site
						{
							OFFSET 0.00000 -0.00000 0.99320
						}
					}
				}
			}
		}
	}
	JOINT RHipJoint
	{
		OFFSET 0 0 0
		CHANNELS 3 Zrotation Yrotation Xrotation
		JOINT RightHip
		{
			OFFSET -1.70852 -1.82040 0.59464
			CHANNELS 3 Zrotation Yrotation Xrotation
			JOINT RightKnee
			{
				OFFSET -2.50396 -6.87957 0.00000
				CHANNELS 3 Zrotation Yrotation Xrotation
				JOINT RightAnkle
				{
					OFFSET -2.67204 -7.34139 0.00000
					CHANNELS 3 Zrotation Yrotation Xrotation
					JOINT RightToe
					{
						OFFSET -0.17346 -0.47657 2.02009
						CHANNELS 3 Zrotation Yrotation Xrotation
						End Site
						{
							OFFSET -0.00000 -0.00000 1.04609
						}
					}
				}
			}
		}
	}
	JOINT lowerback
	{
		OFFSET 0 0 0
		CHANNELS 3 Zrotation Yrotation Xrotation
		JOINT Chest
		{
			OFFSET -0.01022 1.99636 -0.30653
			CHANNELS 3 Zrotation Yrotation Xrotation
			JOINT Chest2
			{
				OFFSET -0.01683 2.01212 0.04808
				CHANNELS 3 Zrotation Yrotation Xrotation
				JOINT lowerneck
				{
					OFFSET 0 0 0
					CHANNELS 3 Zrotation Yrotation Xrotation
					JOINT Neck
					{
						OFFSET -0.03080 1.91178 0.03911
						CHANNELS 3 Zrotation Yrotation Xrotation
						JOINT Head
						{
							OFFSET 0.10605 1.89839 -0.23433
							CHANNELS 3 Zrotation Yrotation Xrotation
							End Site
							{
								OFFSET 0.03474 1.92469 -0.08609
							}
						}
					}
				}
				JOINT LeftCollar
				{
					OFFSET 0 0 0
					CHANNELS 3 Zrotation Yrotation Xrotation
					JOINT LeftShoulder
					{
						OFFSET 3.78977 1.27972 -0.24661
CHANNELS 3 Zrotation Xrotation Yrotation
						JOINT LeftElbow
						{
OFFSET 0 -5.641470 -0.000000
CHANNELS 3 Zrotation Xrotation Yrotation
							JOINT LeftWrist
							{
OFFSET 0 -2.864440 -0.000000
CHANNELS 3 Zrotation Xrotation Yrotation
								JOINT lhand
								{
									OFFSET 0 0 0
CHANNELS 3 Zrotation Xrotation Yrotation
									JOINT LFingers
									{
OFFSET 0 -0.722120 -0.000000
CHANNELS 3 Zrotation Xrotation Yrotation
										End Site
										{
OFFSET 0 -0.582190 -0.000000
										}
									}
								}
								JOINT LThumb
								{
OFFSET 0 0.000000 0.000000
CHANNELS 3 Zrotation Xrotation Yrotation
									End Site
									{
OFFSET 0 -0.591080 0.591080
									}
								}
							}
						}
					}
				}
				JOINT RightCollar
				{
					OFFSET 0 0 0
					CHANNELS 3 Zrotation Yrotation Xrotation
					JOINT RightShoulder
					{
						OFFSET -3.41176 1.18605 -0.57927
CHANNELS 3 Zrotation Xrotation Yrotation
						JOINT RightElbow
						{
OFFSET 0 -5.447290 -0.000000
CHANNELS 3 Zrotation Xrotation Yrotation
							JOINT RightWrist
							{
OFFSET 0 -3.088210 -0.000000
CHANNELS 3 Zrotation Xrotation Yrotation
								JOINT rhand
								{
									OFFSET 0 0 0
CHANNELS 3 Zrotation Xrotation Yrotation
									JOINT RFingers
									{
OFFSET 0 -0.821050 -0.000000
CHANNELS 3 Zrotation Xrotation Yrotation
										End Site
										{
OFFSET 0 -0.661950 -0.000000
										}
									}
								}
								JOINT RThumb
								{
OFFSET 0 0.000000 0.000000
CHANNELS 3 Zrotation Xrotation Yrotation
									End Site
									{
OFFSET 0 -0.672060 0.672060
									}
								}
							}
						}
					}
				}
			}
		}
	}
}
MOTION
Frames: 8
Frame Time: 0.008333333333333333
2.677046 17.251144 0.101470 -157.623513 94.986768 -158.364386 0.000000 0.000000 0.000000 -18.432676 7.812178 -13.514367 2.579751 9.980430 28.914302 0.528804 -11.565592 -14.272366 0.047345 -1.403940 -3.861026 0.000000 0.000000 0.000000 14.379793 4.739174 -11.493537 -3.463955 -11.409857 33.675987 -1.120868 11.233502 -19.333377 -0.286481 3.436473 -9.497073 1.505992 -1.229802 11.055173 0.309108 -1.394539 -2.982537 -0.253147 -0.747966 -9.443031 -3.420214 -2.392073 -8.524493 6.391610 -3.491335 10.865050 2.306881 -1.432510 4.830102 0.000000 0.000000 0.000000 10.615942 2.358007 -47.199050 17.699237 -27.770316 4.408249 21.109263 -48.315808 -16.287155 0.000000 0.000000 0.000000 -7.125000 0.000000 0.000000 -6.382006 47.268190 0.358618 0.000000 0.000000 0.000000 -68.585953 -35.131097 -25.302657 -86.201379 -59.945420 -56.710927 -12.077333 -31.334417 4.128269 0.000000 0.000000 0.000000 7.125000 0.000000 0.000000 11.921041 34.012816 3.273121
3.013733 17.674564 0.254004 -107.315274 90.993152 -108.615447 0.000000 0.000000 0.000000 -18.045445 2.108312 1.266928 0.324002 3.656773 10.113122 0.444289 -1.743262 -12.110225 0.002881 0.344114 0.945510 0.000000 0.000000 0.000000 16.942192 2.641185 0.709222 -0.859893 -5.912243 16.530302 -1.028767 3.686962 -18.291636 -0.043539 1.346705 -3.703377 1.738928 -1.002156 7.765153 -0.159468 -1.138655 -3.990014 -0.975333 -0.651193 -8.624076 -4.502942 -3.446613 -7.110208 7.449444 -4.982847 12.187048 2.729135 -2.131610 5.126379 0.000000 0.000000 0.000000 10.876726 0.234494 -48.056061 17.974852 -28.124968 4.537389 21.814985 -46.293159 -16.082721 0.000000 0.000000 0.000000 -7.125000 0.000000 0.000000 -5.668949 47.151738 0.302033 0.000000 0.000000 0.000000 -59.978444 -26.579683 -15.633175 -102.183796 -59.427957 -70.530991 -15.058467 -29.910671 2.932749 0.000000 0.000000 0.000000 7.125000 0.000000 0.000000 9.355864 32.914570 2.802267
3.128977 17.657096 0.452639 4.284891 94.206603 3.630199 0.000000 0.000000 0.000000 -15.630575 0.279869 0.903215 0.309213 3.574959 9.883791 0.341449 -4.719781 -10.426004 0.000372 0.126614 0.347875 0.000000 0.000000 0.000000 18.783607 -1.390183 1.487630 -0.563597 -4.808401 13.362987 -0.990464 3.535290 -17.956643 -0.004191 0.409684 -1.125658 0.219078 -1.228950 5.695830 0.024235 -1.585543 -4.533975 0.098394 -0.770632 -7.963074 -5.597878 -4.864838 -6.553112 8.178055 -6.826293 10.796995 3.013155 -3.077385 4.783423 0.000000 0.000000 0.000000 9.137965 0.514925 -48.177206 19.649766 -30.218026 5.353961 21.348990 -48.376492 -14.559739 0.000000 0.000000 0.000000 -7.125000 0.000000 0.000000 -5.779482 45.482164 0.068929 0.000000 0.000000 0.000000 -37.734736 -11.123973 -1.462248 -130.775960 -52.677056 -94.444070 -18.427871 -26.755736 -1.557550 0.000000 0.000000 0.000000 7.125000 0.000000 0.000000 6.309608 28.317147 2.576031
3.054973 17.634603 0.475905 -4.276870 93.197908 -6.767043 0.000000 0.000000 0.000000 -16.099203 2.351714 2.989451 0.233140 3.107741 8.578751 0.277428 -4.599337 -9.427219 0.000871 -0.162199 -0.445740 0.000000 0.000000 0.000000 18.330259 -0.803716 2.118044 -0.763678 -5.580706 15.572598 -1.071151 3.991099 -18.637256 -0.006126 0.504360 -1.385810 0.158418 -1.041341 7.375914 -0.060354 -1.368518 -3.530112 0.039143 -0.673027 -7.863077 -5.033821 -4.935631 -6.627575 7.190356 -6.842951 10.163313 2.615312 -3.135403 4.550050 0.000000 0.000000 0.000000 8.300566 3.130332 -49.352113 19.476208 -30.006087 5.266873 21.721946 -49.064651 -16.067405 0.000000 0.000000 0.000000 -7.125000 0.000000 0.000000 -5.752608 47.123150 0.300859 0.000000 0.000000 0.000000 -26.174981 -5.629070 10.498411 -125.030327 -54.813181 -89.808768 -19.095224 -25.076616 -2.434577 0.000000 0.000000 0.000000 7.125000 0.000000 0.000000 5.752812 27.390693 2.472656
3.028639 17.644012 0.450312 -8.990185 92.251601 -11.142502 0.000000 0.000000 0.000000 -16.112508 4.710720 2.213924 0.198161 2.866469 7.907269 0.169535 -5.908387 -7.856250 0.016174 0.817598 2.247056 0.000000 0.000000 0.000000 18.207651 0.194142 1.710669 -0.792613 -5.682948 15.867137 -1.095404 3.557910 -18.916115 -0.020880 0.928664 -2.552578 1.818594 -1.208295 7.022040 0.239002 -1.395671 -3.628507 -0.579911 -0.762475 -7.799539 -4.641914 -4.667107 -6.115833 6.607629 -6.428803 9.123486 2.418770 -2.979084 4.089923 0.000000 0.000000 0.000000 6.824335 5.356137 -47.566624 17.791745 -27.889434 4.451477 20.524634 -47.688161 -16.036248 0.000000 0.000000 0.000000 -7.125000 0.000000 0.000000 -6.872818 46.924455 0.327878 0.000000 0.000000 0.000000 -19.418932 -2.410705 17.579689 -120.478059 -56.180960 -86.056295 -18.015864 -22.647227 -2.491677 0.000000 0.000000 0.000000 7.125000 0.000000 0.000000 6.576514 27.343089 2.838354
3.009585 17.639676 0.534219 -8.542415 93.507384 -11.054630 0.000000 0.000000 0.000000 -15.914514 4.989589 2.347651 0.186525 2.781534 7.671131 0.092769 -6.879139 -6.810127 0.011070 0.679951 1.868610 0.000000 0.000000 0.000000 18.342098 -0.418694 1.994395 -0.797569 -5.700345 15.917401 -1.159364 3.313273 -19.521681 -0.019803 0.908169 -2.496211 1.957886 -1.330865 6.695664 0.425280 -1.541473 -3.488488 -0.452059 -0.833093 -7.462451 -4.490116 -4.699021 -5.851020 6.784916 -6.511756 9.256302 2.448676 -3.005120 4.091873 0.000000 0.000000 0.000000 4.424653 4.570820 -43.411563 14.873782 -23.969949 3.174513 20.730950 -42.593510 -15.829127 0.000000 0.000000 0.000000 -7.125000 0.000000 0.000000 -6.630797 46.735739 0.285344 0.000000 0.000000 0.000000 -13.813879 2.623024 22.800259 -117.104938 -57.033251 -83.239779 -20.296418 -20.720136 -3.746527 0.000000 0.000000 0.000000 7.125000 0.000000 0.000000 4.792779 25.981896 2.216034
3.033228 17.622349 0.691848 -9.287581 95.155179 -12.719375 0.000000 0.000000 0.000000 -15.386712 5.477454 4.389012 0.086708 1.898932 5.226527 -0.037322 -7.385477 -4.279284 0.073855 1.751079 4.818187 0.000000 0.000000 0.000000 18.513375 -1.973649 2.599942 -0.850157 -5.880584 16.438223 -1.286472 3.329260 -20.602508 -0.014341 0.772593 -2.123222 1.487278 -1.080473 5.840379 0.239584 -1.286242 -3.207099 -0.437016 -0.686906 -6.653707 -4.931854 -5.098614 -5.415440 7.263121 -7.079907 9.580010 2.638805 -3.274633 4.183062 0.000000 0.000000 0.000000 3.688796 3.845303 -42.328640 13.324607 -21.760406 2.572816 20.920335 -40.550633 -15.169527 0.000000 0.000000 0.000000 -7.125000 0.000000 0.000000 -6.305507 46.069117 0.166925 0.000000 0.000000 0.000000 -13.530560 4.653531 29.427167 -113.168233 -57.871316 -79.920846 -18.915166 -11.298094 -4.441122 0.000000 0.000000 0.000000 7.125000 0.000000 0.000000 5.814808 25.283693 2.788289
2.998401 17.600658 0.866645 -6.973287 97.697302 -11.170223 0.000000 0.000000 0.000000 -14.921607 4.425807 4.857133 0.089311 1.927076 5.304115 -0.113238 -8.284064 -3.114400 0.039954 1.289210 3.544865 0.000000 0.000000 0.000000 18.937275 -3.594130 3.113713 -0.857533 -5.905309 16.509853 -1.399389 2.932499 -21.598481 -0.014114 0.766035 -2.105305 2.039525 -0.705906 5.171723 0.307626 -0.729158 -3.733066 -0.744058 -0.434992 -6.822543 -5.834218 -4.721454 -5.231256 9.333509 -6.760322 10.967216 3.446957 -2.998761 4.652925 0.000000 0.000000 0.000000 2.799467 0.491831 -37.907864 9.251910 -15.561051 1.266866 21.938045 -32.423754 -14.473656 0.000000 0.000000 0.000000 -7.125000 0.000000 0.000000 -5.216787 45.465509 0.060350 0.000000 0.000000 0.000000 -23.263599 -4.846415 29.861854 -111.150171 -58.240285 -78.208370 -18.523753 3.895321 -7.331854 0.000000 0.000000 0.000000 7.125000 0.000000 0.000000 6.040860 22.266048 3.319147
